<mxfile host="Electron" modified="2024-04-07T18:28:24.181Z" agent="Mozilla/5.0 (Windows NT 10.0; Win64; x64) AppleWebKit/537.36 (KHTML, like Gecko) draw.io/23.0.2 Chrome/120.0.6099.109 Electron/28.1.0 Safari/537.36" etag="pFxTnk-VhuLU-otCqyqC" version="23.0.2" type="device">
  <diagram name="Страница — 1" id="hvLPPFA4iMiR-bGkCTV5">
    <mxGraphModel dx="1290" dy="629" grid="1" gridSize="10" guides="1" tooltips="1" connect="1" arrows="1" fold="1" page="1" pageScale="1" pageWidth="827" pageHeight="1169" math="0" shadow="0">
      <root>
        <mxCell id="0" />
        <mxCell id="1" parent="0" />
        <mxCell id="KDOvX2IwmLNje3FLTkCe-1" value="начало" style="ellipse;whiteSpace=wrap;html=1;" vertex="1" parent="1">
          <mxGeometry x="350" y="90" width="120" height="40" as="geometry" />
        </mxCell>
        <mxCell id="KDOvX2IwmLNje3FLTkCe-2" value="" style="endArrow=classic;html=1;rounded=0;" edge="1" parent="1">
          <mxGeometry width="50" height="50" relative="1" as="geometry">
            <mxPoint x="410" y="130" as="sourcePoint" />
            <mxPoint x="410" y="300" as="targetPoint" />
          </mxGeometry>
        </mxCell>
        <mxCell id="KDOvX2IwmLNje3FLTkCe-3" value="" style="endArrow=none;dashed=1;html=1;rounded=0;" edge="1" parent="1">
          <mxGeometry width="50" height="50" relative="1" as="geometry">
            <mxPoint x="411" y="190" as="sourcePoint" />
            <mxPoint x="501" y="190" as="targetPoint" />
          </mxGeometry>
        </mxCell>
        <mxCell id="KDOvX2IwmLNje3FLTkCe-4" value="" style="endArrow=none;html=1;rounded=0;" edge="1" parent="1">
          <mxGeometry width="50" height="50" relative="1" as="geometry">
            <mxPoint x="500" y="280" as="sourcePoint" />
            <mxPoint x="500" y="110" as="targetPoint" />
          </mxGeometry>
        </mxCell>
        <mxCell id="KDOvX2IwmLNje3FLTkCe-6" value="&lt;div&gt;#include &amp;lt;iostream&amp;gt;&lt;/div&gt;&lt;div&gt;#include &amp;lt;fstream&amp;gt;&lt;/div&gt;&lt;div&gt;#include &amp;lt;string&amp;gt;&lt;/div&gt;&lt;div&gt;using namespace std;&lt;/div&gt;&lt;div&gt;int main()&amp;nbsp;&lt;/div&gt;&lt;div&gt;{&lt;/div&gt;&lt;div&gt;&lt;div&gt;setlocale(LC_ALL, &quot;Ru&quot;);&lt;/div&gt;&lt;div&gt;ifstream file1(&quot;F1.txt&quot;);&lt;/div&gt;&lt;div&gt;ofstream file2(&quot;F2.txt&quot;);&lt;/div&gt;&lt;div&gt;string line;&lt;/div&gt;&lt;/div&gt;" style="text;html=1;align=left;verticalAlign=middle;resizable=0;points=[];autosize=1;strokeColor=none;fillColor=none;" vertex="1" parent="1">
          <mxGeometry x="510" y="120" width="160" height="160" as="geometry" />
        </mxCell>
        <mxCell id="KDOvX2IwmLNje3FLTkCe-7" value="" style="endArrow=none;html=1;rounded=0;" edge="1" parent="1">
          <mxGeometry width="50" height="50" relative="1" as="geometry">
            <mxPoint x="500" y="280" as="sourcePoint" />
            <mxPoint x="530" y="280" as="targetPoint" />
          </mxGeometry>
        </mxCell>
        <mxCell id="KDOvX2IwmLNje3FLTkCe-8" value="" style="endArrow=none;html=1;rounded=0;" edge="1" parent="1">
          <mxGeometry width="50" height="50" relative="1" as="geometry">
            <mxPoint x="500" y="110" as="sourcePoint" />
            <mxPoint x="530" y="110" as="targetPoint" />
          </mxGeometry>
        </mxCell>
        <mxCell id="KDOvX2IwmLNje3FLTkCe-9" value="while (getline(file1, line))" style="rhombus;whiteSpace=wrap;html=1;" vertex="1" parent="1">
          <mxGeometry x="330" y="300" width="160" height="50" as="geometry" />
        </mxCell>
        <mxCell id="KDOvX2IwmLNje3FLTkCe-10" value="" style="endArrow=classic;html=1;rounded=0;exitX=0.5;exitY=1;exitDx=0;exitDy=0;" edge="1" parent="1" source="KDOvX2IwmLNje3FLTkCe-9" target="KDOvX2IwmLNje3FLTkCe-11">
          <mxGeometry width="50" height="50" relative="1" as="geometry">
            <mxPoint x="390" y="450" as="sourcePoint" />
            <mxPoint x="410" y="400" as="targetPoint" />
          </mxGeometry>
        </mxCell>
        <mxCell id="KDOvX2IwmLNje3FLTkCe-11" value="if (line.find(&#39; &#39;) == -1)" style="rhombus;whiteSpace=wrap;html=1;" vertex="1" parent="1">
          <mxGeometry x="310" y="380" width="200" height="40" as="geometry" />
        </mxCell>
        <mxCell id="KDOvX2IwmLNje3FLTkCe-13" value="" style="endArrow=none;html=1;rounded=0;exitX=0;exitY=0.5;exitDx=0;exitDy=0;" edge="1" parent="1" source="KDOvX2IwmLNje3FLTkCe-11">
          <mxGeometry width="50" height="50" relative="1" as="geometry">
            <mxPoint x="390" y="450" as="sourcePoint" />
            <mxPoint x="290" y="400" as="targetPoint" />
          </mxGeometry>
        </mxCell>
        <mxCell id="KDOvX2IwmLNje3FLTkCe-14" value="" style="endArrow=none;html=1;rounded=0;exitX=1;exitY=0.5;exitDx=0;exitDy=0;" edge="1" parent="1" source="KDOvX2IwmLNje3FLTkCe-11">
          <mxGeometry width="50" height="50" relative="1" as="geometry">
            <mxPoint x="390" y="450" as="sourcePoint" />
            <mxPoint x="530" y="400" as="targetPoint" />
          </mxGeometry>
        </mxCell>
        <mxCell id="KDOvX2IwmLNje3FLTkCe-15" value="" style="endArrow=classic;html=1;rounded=0;" edge="1" parent="1">
          <mxGeometry width="50" height="50" relative="1" as="geometry">
            <mxPoint x="290" y="400" as="sourcePoint" />
            <mxPoint x="290" y="440" as="targetPoint" />
          </mxGeometry>
        </mxCell>
        <mxCell id="KDOvX2IwmLNje3FLTkCe-16" value="file2 &amp;lt;&amp;lt; line &amp;lt;&amp;lt; endl;" style="rounded=0;whiteSpace=wrap;html=1;" vertex="1" parent="1">
          <mxGeometry x="230" y="440" width="120" height="30" as="geometry" />
        </mxCell>
        <mxCell id="KDOvX2IwmLNje3FLTkCe-18" value="" style="endArrow=none;html=1;rounded=0;" edge="1" parent="1">
          <mxGeometry width="50" height="50" relative="1" as="geometry">
            <mxPoint x="530" y="400" as="sourcePoint" />
            <mxPoint x="530" y="510" as="targetPoint" />
          </mxGeometry>
        </mxCell>
        <mxCell id="KDOvX2IwmLNje3FLTkCe-19" value="" style="endArrow=none;html=1;rounded=0;exitX=0.5;exitY=1;exitDx=0;exitDy=0;" edge="1" parent="1" source="KDOvX2IwmLNje3FLTkCe-16">
          <mxGeometry width="50" height="50" relative="1" as="geometry">
            <mxPoint x="390" y="450" as="sourcePoint" />
            <mxPoint x="290" y="510" as="targetPoint" />
          </mxGeometry>
        </mxCell>
        <mxCell id="KDOvX2IwmLNje3FLTkCe-20" value="" style="endArrow=classic;html=1;rounded=0;" edge="1" parent="1">
          <mxGeometry width="50" height="50" relative="1" as="geometry">
            <mxPoint x="290" y="510" as="sourcePoint" />
            <mxPoint x="410" y="510" as="targetPoint" />
          </mxGeometry>
        </mxCell>
        <mxCell id="KDOvX2IwmLNje3FLTkCe-21" value="" style="endArrow=classic;html=1;rounded=0;" edge="1" parent="1">
          <mxGeometry width="50" height="50" relative="1" as="geometry">
            <mxPoint x="530" y="510" as="sourcePoint" />
            <mxPoint x="410" y="510" as="targetPoint" />
          </mxGeometry>
        </mxCell>
        <mxCell id="KDOvX2IwmLNje3FLTkCe-22" value="" style="endArrow=none;html=1;rounded=0;" edge="1" parent="1">
          <mxGeometry width="50" height="50" relative="1" as="geometry">
            <mxPoint x="410" y="510" as="sourcePoint" />
            <mxPoint x="410" y="550" as="targetPoint" />
          </mxGeometry>
        </mxCell>
        <mxCell id="KDOvX2IwmLNje3FLTkCe-23" value="" style="endArrow=none;html=1;rounded=0;" edge="1" parent="1">
          <mxGeometry width="50" height="50" relative="1" as="geometry">
            <mxPoint x="410" y="550" as="sourcePoint" />
            <mxPoint x="190" y="550" as="targetPoint" />
          </mxGeometry>
        </mxCell>
        <mxCell id="KDOvX2IwmLNje3FLTkCe-24" value="" style="endArrow=none;html=1;rounded=0;" edge="1" parent="1">
          <mxGeometry width="50" height="50" relative="1" as="geometry">
            <mxPoint x="190" y="550" as="sourcePoint" />
            <mxPoint x="190" y="270" as="targetPoint" />
          </mxGeometry>
        </mxCell>
        <mxCell id="KDOvX2IwmLNje3FLTkCe-25" value="" style="endArrow=classic;html=1;rounded=0;" edge="1" parent="1">
          <mxGeometry width="50" height="50" relative="1" as="geometry">
            <mxPoint x="190" y="270" as="sourcePoint" />
            <mxPoint x="410" y="270" as="targetPoint" />
          </mxGeometry>
        </mxCell>
        <mxCell id="KDOvX2IwmLNje3FLTkCe-26" value="{" style="text;html=1;align=center;verticalAlign=middle;resizable=0;points=[];autosize=1;strokeColor=none;fillColor=none;" vertex="1" parent="1">
          <mxGeometry x="375" y="348" width="30" height="30" as="geometry" />
        </mxCell>
        <mxCell id="KDOvX2IwmLNje3FLTkCe-27" value="}}" style="text;html=1;align=center;verticalAlign=middle;resizable=0;points=[];autosize=1;strokeColor=none;fillColor=none;" vertex="1" parent="1">
          <mxGeometry x="415" y="518" width="30" height="30" as="geometry" />
        </mxCell>
        <mxCell id="KDOvX2IwmLNje3FLTkCe-28" value="1 {" style="text;html=1;align=center;verticalAlign=middle;resizable=0;points=[];autosize=1;strokeColor=none;fillColor=none;" vertex="1" parent="1">
          <mxGeometry x="280" y="378" width="40" height="30" as="geometry" />
        </mxCell>
        <mxCell id="KDOvX2IwmLNje3FLTkCe-29" value="0" style="text;html=1;align=center;verticalAlign=middle;resizable=0;points=[];autosize=1;strokeColor=none;fillColor=none;" vertex="1" parent="1">
          <mxGeometry x="495" y="368" width="30" height="30" as="geometry" />
        </mxCell>
        <mxCell id="KDOvX2IwmLNje3FLTkCe-30" value="" style="endArrow=none;html=1;rounded=0;exitX=1;exitY=0.5;exitDx=0;exitDy=0;" edge="1" parent="1" source="KDOvX2IwmLNje3FLTkCe-9">
          <mxGeometry width="50" height="50" relative="1" as="geometry">
            <mxPoint x="390" y="450" as="sourcePoint" />
            <mxPoint x="720" y="325" as="targetPoint" />
          </mxGeometry>
        </mxCell>
        <mxCell id="KDOvX2IwmLNje3FLTkCe-31" value="" style="endArrow=classic;html=1;rounded=0;entryX=0.5;entryY=0;entryDx=0;entryDy=0;" edge="1" parent="1" target="KDOvX2IwmLNje3FLTkCe-32">
          <mxGeometry width="50" height="50" relative="1" as="geometry">
            <mxPoint x="720" y="325" as="sourcePoint" />
            <mxPoint x="720" y="360" as="targetPoint" />
          </mxGeometry>
        </mxCell>
        <mxCell id="KDOvX2IwmLNje3FLTkCe-32" value="file1.close();" style="rounded=0;whiteSpace=wrap;html=1;" vertex="1" parent="1">
          <mxGeometry x="660" y="368" width="120" height="32" as="geometry" />
        </mxCell>
        <mxCell id="KDOvX2IwmLNje3FLTkCe-33" value="" style="endArrow=classic;html=1;rounded=0;exitX=0.5;exitY=1;exitDx=0;exitDy=0;" edge="1" parent="1" source="KDOvX2IwmLNje3FLTkCe-32" target="KDOvX2IwmLNje3FLTkCe-34">
          <mxGeometry width="50" height="50" relative="1" as="geometry">
            <mxPoint x="390" y="450" as="sourcePoint" />
            <mxPoint x="720" y="430" as="targetPoint" />
          </mxGeometry>
        </mxCell>
        <mxCell id="KDOvX2IwmLNje3FLTkCe-34" value="file2.close();" style="rounded=0;whiteSpace=wrap;html=1;" vertex="1" parent="1">
          <mxGeometry x="660" y="430" width="120" height="30" as="geometry" />
        </mxCell>
        <mxCell id="KDOvX2IwmLNje3FLTkCe-35" value="" style="endArrow=classic;html=1;rounded=0;exitX=0.5;exitY=1;exitDx=0;exitDy=0;" edge="1" parent="1" source="KDOvX2IwmLNje3FLTkCe-34" target="KDOvX2IwmLNje3FLTkCe-36">
          <mxGeometry width="50" height="50" relative="1" as="geometry">
            <mxPoint x="390" y="450" as="sourcePoint" />
            <mxPoint x="720" y="490" as="targetPoint" />
          </mxGeometry>
        </mxCell>
        <mxCell id="KDOvX2IwmLNje3FLTkCe-36" value="string newline;" style="rounded=0;whiteSpace=wrap;html=1;" vertex="1" parent="1">
          <mxGeometry x="660" y="488" width="120" height="32" as="geometry" />
        </mxCell>
        <mxCell id="KDOvX2IwmLNje3FLTkCe-37" value="" style="endArrow=classic;html=1;rounded=0;exitX=0.5;exitY=1;exitDx=0;exitDy=0;" edge="1" parent="1" source="KDOvX2IwmLNje3FLTkCe-36" target="KDOvX2IwmLNje3FLTkCe-38">
          <mxGeometry width="50" height="50" relative="1" as="geometry">
            <mxPoint x="390" y="450" as="sourcePoint" />
            <mxPoint x="720" y="550" as="targetPoint" />
          </mxGeometry>
        </mxCell>
        <mxCell id="KDOvX2IwmLNje3FLTkCe-38" value="ifstream openfile(&quot;F2.txt&quot;);" style="rounded=0;whiteSpace=wrap;html=1;" vertex="1" parent="1">
          <mxGeometry x="630" y="548" width="180" height="32" as="geometry" />
        </mxCell>
        <mxCell id="KDOvX2IwmLNje3FLTkCe-40" value="" style="endArrow=classic;html=1;rounded=0;exitX=0.5;exitY=1;exitDx=0;exitDy=0;" edge="1" parent="1" source="KDOvX2IwmLNje3FLTkCe-38" target="KDOvX2IwmLNje3FLTkCe-41">
          <mxGeometry width="50" height="50" relative="1" as="geometry">
            <mxPoint x="390" y="450" as="sourcePoint" />
            <mxPoint x="720" y="620" as="targetPoint" />
          </mxGeometry>
        </mxCell>
        <mxCell id="KDOvX2IwmLNje3FLTkCe-41" value="if (openfile.is_open()){" style="rhombus;whiteSpace=wrap;html=1;" vertex="1" parent="1">
          <mxGeometry x="600" y="620" width="240" height="40" as="geometry" />
        </mxCell>
        <mxCell id="KDOvX2IwmLNje3FLTkCe-43" value="" style="endArrow=none;html=1;rounded=0;exitX=0;exitY=0.5;exitDx=0;exitDy=0;" edge="1" parent="1" source="KDOvX2IwmLNje3FLTkCe-41">
          <mxGeometry width="50" height="50" relative="1" as="geometry">
            <mxPoint x="390" y="650" as="sourcePoint" />
            <mxPoint x="560" y="640" as="targetPoint" />
          </mxGeometry>
        </mxCell>
        <mxCell id="KDOvX2IwmLNje3FLTkCe-44" value="" style="endArrow=classic;html=1;rounded=0;" edge="1" parent="1" target="KDOvX2IwmLNje3FLTkCe-45">
          <mxGeometry width="50" height="50" relative="1" as="geometry">
            <mxPoint x="560" y="640" as="sourcePoint" />
            <mxPoint x="560" y="710" as="targetPoint" />
          </mxGeometry>
        </mxCell>
        <mxCell id="KDOvX2IwmLNje3FLTkCe-45" value="while (getline(openfile, newline))" style="rhombus;whiteSpace=wrap;html=1;" vertex="1" parent="1">
          <mxGeometry x="460" y="700" width="200" height="60" as="geometry" />
        </mxCell>
        <mxCell id="KDOvX2IwmLNje3FLTkCe-46" value="" style="endArrow=classic;html=1;rounded=0;exitX=0.5;exitY=1;exitDx=0;exitDy=0;" edge="1" parent="1" source="KDOvX2IwmLNje3FLTkCe-45">
          <mxGeometry width="50" height="50" relative="1" as="geometry">
            <mxPoint x="390" y="650" as="sourcePoint" />
            <mxPoint x="560" y="800" as="targetPoint" />
          </mxGeometry>
        </mxCell>
        <mxCell id="KDOvX2IwmLNje3FLTkCe-47" value="cout &amp;lt;&amp;lt; newline &amp;lt;&amp;lt; endl;" style="shape=parallelogram;perimeter=parallelogramPerimeter;whiteSpace=wrap;html=1;fixedSize=1;" vertex="1" parent="1">
          <mxGeometry x="460" y="800" width="200" height="30" as="geometry" />
        </mxCell>
        <mxCell id="KDOvX2IwmLNje3FLTkCe-49" value="" style="endArrow=none;html=1;rounded=0;exitX=0.5;exitY=1;exitDx=0;exitDy=0;" edge="1" parent="1" source="KDOvX2IwmLNje3FLTkCe-47">
          <mxGeometry width="50" height="50" relative="1" as="geometry">
            <mxPoint x="390" y="650" as="sourcePoint" />
            <mxPoint x="560" y="860" as="targetPoint" />
          </mxGeometry>
        </mxCell>
        <mxCell id="KDOvX2IwmLNje3FLTkCe-50" value="" style="endArrow=none;html=1;rounded=0;" edge="1" parent="1">
          <mxGeometry width="50" height="50" relative="1" as="geometry">
            <mxPoint x="560" y="860" as="sourcePoint" />
            <mxPoint x="420" y="860" as="targetPoint" />
          </mxGeometry>
        </mxCell>
        <mxCell id="KDOvX2IwmLNje3FLTkCe-51" value="" style="endArrow=none;html=1;rounded=0;" edge="1" parent="1">
          <mxGeometry width="50" height="50" relative="1" as="geometry">
            <mxPoint x="420" y="860" as="sourcePoint" />
            <mxPoint x="420" y="680" as="targetPoint" />
          </mxGeometry>
        </mxCell>
        <mxCell id="KDOvX2IwmLNje3FLTkCe-53" value="" style="endArrow=none;html=1;rounded=0;exitX=1;exitY=0.5;exitDx=0;exitDy=0;" edge="1" parent="1" source="KDOvX2IwmLNje3FLTkCe-45">
          <mxGeometry width="50" height="50" relative="1" as="geometry">
            <mxPoint x="390" y="650" as="sourcePoint" />
            <mxPoint x="700" y="730" as="targetPoint" />
          </mxGeometry>
        </mxCell>
        <mxCell id="KDOvX2IwmLNje3FLTkCe-54" value="" style="endArrow=none;html=1;rounded=0;" edge="1" parent="1">
          <mxGeometry width="50" height="50" relative="1" as="geometry">
            <mxPoint x="700" y="730" as="sourcePoint" />
            <mxPoint x="700" y="910" as="targetPoint" />
          </mxGeometry>
        </mxCell>
        <mxCell id="KDOvX2IwmLNje3FLTkCe-55" value="" style="endArrow=none;html=1;rounded=0;exitX=1;exitY=0.5;exitDx=0;exitDy=0;" edge="1" parent="1" source="KDOvX2IwmLNje3FLTkCe-41">
          <mxGeometry width="50" height="50" relative="1" as="geometry">
            <mxPoint x="390" y="650" as="sourcePoint" />
            <mxPoint x="870" y="640" as="targetPoint" />
          </mxGeometry>
        </mxCell>
        <mxCell id="KDOvX2IwmLNje3FLTkCe-56" value="" style="endArrow=none;html=1;rounded=0;" edge="1" parent="1">
          <mxGeometry width="50" height="50" relative="1" as="geometry">
            <mxPoint x="870" y="640" as="sourcePoint" />
            <mxPoint x="870" y="910" as="targetPoint" />
          </mxGeometry>
        </mxCell>
        <mxCell id="KDOvX2IwmLNje3FLTkCe-58" value="" style="endArrow=classic;html=1;rounded=0;" edge="1" parent="1">
          <mxGeometry width="50" height="50" relative="1" as="geometry">
            <mxPoint x="420" y="680" as="sourcePoint" />
            <mxPoint x="560" y="680" as="targetPoint" />
          </mxGeometry>
        </mxCell>
        <mxCell id="KDOvX2IwmLNje3FLTkCe-59" value="" style="endArrow=classic;html=1;rounded=0;" edge="1" parent="1">
          <mxGeometry width="50" height="50" relative="1" as="geometry">
            <mxPoint x="700" y="910" as="sourcePoint" />
            <mxPoint x="790" y="910" as="targetPoint" />
          </mxGeometry>
        </mxCell>
        <mxCell id="KDOvX2IwmLNje3FLTkCe-60" value="" style="endArrow=classic;html=1;rounded=0;" edge="1" parent="1">
          <mxGeometry width="50" height="50" relative="1" as="geometry">
            <mxPoint x="870" y="910" as="sourcePoint" />
            <mxPoint x="790" y="910" as="targetPoint" />
          </mxGeometry>
        </mxCell>
        <mxCell id="KDOvX2IwmLNje3FLTkCe-61" value="" style="endArrow=classic;html=1;rounded=0;" edge="1" parent="1" target="KDOvX2IwmLNje3FLTkCe-62">
          <mxGeometry width="50" height="50" relative="1" as="geometry">
            <mxPoint x="790" y="910" as="sourcePoint" />
            <mxPoint x="790" y="960" as="targetPoint" />
          </mxGeometry>
        </mxCell>
        <mxCell id="KDOvX2IwmLNje3FLTkCe-62" value="ifstream file3(&quot;F2.txt&quot;);" style="rounded=0;whiteSpace=wrap;html=1;" vertex="1" parent="1">
          <mxGeometry x="710" y="940" width="160" height="30" as="geometry" />
        </mxCell>
        <mxCell id="KDOvX2IwmLNje3FLTkCe-63" value="" style="endArrow=classic;html=1;rounded=0;exitX=0.5;exitY=1;exitDx=0;exitDy=0;" edge="1" parent="1" source="KDOvX2IwmLNje3FLTkCe-62" target="KDOvX2IwmLNje3FLTkCe-64">
          <mxGeometry width="50" height="50" relative="1" as="geometry">
            <mxPoint x="390" y="850" as="sourcePoint" />
            <mxPoint x="790" y="1000" as="targetPoint" />
          </mxGeometry>
        </mxCell>
        <mxCell id="KDOvX2IwmLNje3FLTkCe-64" value="string longestword;" style="rounded=0;whiteSpace=wrap;html=1;" vertex="1" parent="1">
          <mxGeometry x="730" y="1000" width="120" height="30" as="geometry" />
        </mxCell>
        <mxCell id="KDOvX2IwmLNje3FLTkCe-65" value="string word;" style="rounded=0;whiteSpace=wrap;html=1;" vertex="1" parent="1">
          <mxGeometry x="730" y="1060" width="120" height="30" as="geometry" />
        </mxCell>
        <mxCell id="KDOvX2IwmLNje3FLTkCe-66" value="" style="endArrow=classic;html=1;rounded=0;exitX=0.5;exitY=1;exitDx=0;exitDy=0;entryX=0.5;entryY=0;entryDx=0;entryDy=0;" edge="1" parent="1" source="KDOvX2IwmLNje3FLTkCe-64" target="KDOvX2IwmLNje3FLTkCe-65">
          <mxGeometry width="50" height="50" relative="1" as="geometry">
            <mxPoint x="390" y="850" as="sourcePoint" />
            <mxPoint x="440" y="800" as="targetPoint" />
          </mxGeometry>
        </mxCell>
        <mxCell id="KDOvX2IwmLNje3FLTkCe-67" value="" style="endArrow=classic;html=1;rounded=0;exitX=0.5;exitY=1;exitDx=0;exitDy=0;" edge="1" parent="1" source="KDOvX2IwmLNje3FLTkCe-65" target="KDOvX2IwmLNje3FLTkCe-68">
          <mxGeometry width="50" height="50" relative="1" as="geometry">
            <mxPoint x="390" y="1050" as="sourcePoint" />
            <mxPoint x="790" y="1130" as="targetPoint" />
          </mxGeometry>
        </mxCell>
        <mxCell id="KDOvX2IwmLNje3FLTkCe-68" value="while (file3 &amp;gt;&amp;gt; word)" style="rhombus;whiteSpace=wrap;html=1;" vertex="1" parent="1">
          <mxGeometry x="680" y="1130" width="220" height="50" as="geometry" />
        </mxCell>
        <mxCell id="KDOvX2IwmLNje3FLTkCe-70" value="" style="endArrow=classic;html=1;rounded=0;exitX=0.5;exitY=1;exitDx=0;exitDy=0;" edge="1" parent="1" source="KDOvX2IwmLNje3FLTkCe-68">
          <mxGeometry width="50" height="50" relative="1" as="geometry">
            <mxPoint x="390" y="1050" as="sourcePoint" />
            <mxPoint x="790" y="1220" as="targetPoint" />
          </mxGeometry>
        </mxCell>
        <mxCell id="KDOvX2IwmLNje3FLTkCe-71" value="if (word.length() &amp;gt; longestword.length())" style="rhombus;whiteSpace=wrap;html=1;" vertex="1" parent="1">
          <mxGeometry x="660" y="1220" width="260" height="50" as="geometry" />
        </mxCell>
        <mxCell id="KDOvX2IwmLNje3FLTkCe-73" value="" style="endArrow=none;html=1;rounded=0;exitX=0;exitY=0.5;exitDx=0;exitDy=0;" edge="1" parent="1" source="KDOvX2IwmLNje3FLTkCe-71">
          <mxGeometry width="50" height="50" relative="1" as="geometry">
            <mxPoint x="390" y="1050" as="sourcePoint" />
            <mxPoint x="620" y="1245" as="targetPoint" />
          </mxGeometry>
        </mxCell>
        <mxCell id="KDOvX2IwmLNje3FLTkCe-74" value="" style="endArrow=none;html=1;rounded=0;exitX=1;exitY=0.5;exitDx=0;exitDy=0;" edge="1" parent="1" source="KDOvX2IwmLNje3FLTkCe-71">
          <mxGeometry width="50" height="50" relative="1" as="geometry">
            <mxPoint x="390" y="1050" as="sourcePoint" />
            <mxPoint x="960" y="1245" as="targetPoint" />
          </mxGeometry>
        </mxCell>
        <mxCell id="KDOvX2IwmLNje3FLTkCe-75" value="" style="endArrow=classic;html=1;rounded=0;" edge="1" parent="1" target="KDOvX2IwmLNje3FLTkCe-76">
          <mxGeometry width="50" height="50" relative="1" as="geometry">
            <mxPoint x="620" y="1245" as="sourcePoint" />
            <mxPoint x="620" y="1305" as="targetPoint" />
          </mxGeometry>
        </mxCell>
        <mxCell id="KDOvX2IwmLNje3FLTkCe-76" value="longestword = word;" style="rounded=0;whiteSpace=wrap;html=1;" vertex="1" parent="1">
          <mxGeometry x="560" y="1290" width="120" height="30" as="geometry" />
        </mxCell>
        <mxCell id="KDOvX2IwmLNje3FLTkCe-77" value="" style="endArrow=none;html=1;rounded=0;exitX=0.5;exitY=1;exitDx=0;exitDy=0;" edge="1" parent="1" source="KDOvX2IwmLNje3FLTkCe-76">
          <mxGeometry width="50" height="50" relative="1" as="geometry">
            <mxPoint x="390" y="1250" as="sourcePoint" />
            <mxPoint x="620" y="1360" as="targetPoint" />
          </mxGeometry>
        </mxCell>
        <mxCell id="KDOvX2IwmLNje3FLTkCe-78" value="" style="endArrow=none;html=1;rounded=0;" edge="1" parent="1">
          <mxGeometry width="50" height="50" relative="1" as="geometry">
            <mxPoint x="960" y="1245" as="sourcePoint" />
            <mxPoint x="960" y="1360" as="targetPoint" />
          </mxGeometry>
        </mxCell>
        <mxCell id="KDOvX2IwmLNje3FLTkCe-79" value="" style="endArrow=classic;html=1;rounded=0;" edge="1" parent="1">
          <mxGeometry width="50" height="50" relative="1" as="geometry">
            <mxPoint x="620" y="1360" as="sourcePoint" />
            <mxPoint x="800" y="1360" as="targetPoint" />
          </mxGeometry>
        </mxCell>
        <mxCell id="KDOvX2IwmLNje3FLTkCe-80" value="" style="endArrow=classic;html=1;rounded=0;" edge="1" parent="1">
          <mxGeometry width="50" height="50" relative="1" as="geometry">
            <mxPoint x="960" y="1360" as="sourcePoint" />
            <mxPoint x="800" y="1360" as="targetPoint" />
          </mxGeometry>
        </mxCell>
        <mxCell id="KDOvX2IwmLNje3FLTkCe-82" value="" style="endArrow=none;html=1;rounded=0;" edge="1" parent="1">
          <mxGeometry width="50" height="50" relative="1" as="geometry">
            <mxPoint x="800" y="1360" as="sourcePoint" />
            <mxPoint x="800" y="1400" as="targetPoint" />
          </mxGeometry>
        </mxCell>
        <mxCell id="KDOvX2IwmLNje3FLTkCe-83" value="" style="endArrow=none;html=1;rounded=0;" edge="1" parent="1">
          <mxGeometry width="50" height="50" relative="1" as="geometry">
            <mxPoint x="800" y="1400" as="sourcePoint" />
            <mxPoint x="520" y="1400" as="targetPoint" />
          </mxGeometry>
        </mxCell>
        <mxCell id="KDOvX2IwmLNje3FLTkCe-84" value="" style="endArrow=none;html=1;rounded=0;" edge="1" parent="1">
          <mxGeometry width="50" height="50" relative="1" as="geometry">
            <mxPoint x="520" y="1400" as="sourcePoint" />
            <mxPoint x="520" y="1120" as="targetPoint" />
          </mxGeometry>
        </mxCell>
        <mxCell id="KDOvX2IwmLNje3FLTkCe-85" value="" style="endArrow=classic;html=1;rounded=0;" edge="1" parent="1">
          <mxGeometry width="50" height="50" relative="1" as="geometry">
            <mxPoint x="520" y="1120" as="sourcePoint" />
            <mxPoint x="790" y="1120" as="targetPoint" />
          </mxGeometry>
        </mxCell>
        <mxCell id="KDOvX2IwmLNje3FLTkCe-86" value="" style="endArrow=none;html=1;rounded=0;exitX=1;exitY=0.5;exitDx=0;exitDy=0;" edge="1" parent="1" source="KDOvX2IwmLNje3FLTkCe-68">
          <mxGeometry width="50" height="50" relative="1" as="geometry">
            <mxPoint x="920" y="1250" as="sourcePoint" />
            <mxPoint x="1130" y="1155" as="targetPoint" />
            <Array as="points" />
          </mxGeometry>
        </mxCell>
        <mxCell id="KDOvX2IwmLNje3FLTkCe-87" value="" style="endArrow=classic;html=1;rounded=0;" edge="1" parent="1">
          <mxGeometry width="50" height="50" relative="1" as="geometry">
            <mxPoint x="1130" y="1155" as="sourcePoint" />
            <mxPoint x="1130" y="1240" as="targetPoint" />
          </mxGeometry>
        </mxCell>
        <mxCell id="KDOvX2IwmLNje3FLTkCe-88" value="file3.close();" style="rounded=0;whiteSpace=wrap;html=1;" vertex="1" parent="1">
          <mxGeometry x="1070" y="1240" width="120" height="30" as="geometry" />
        </mxCell>
        <mxCell id="KDOvX2IwmLNje3FLTkCe-89" value="" style="endArrow=classic;html=1;rounded=0;exitX=0.5;exitY=1;exitDx=0;exitDy=0;" edge="1" parent="1" source="KDOvX2IwmLNje3FLTkCe-88" target="KDOvX2IwmLNje3FLTkCe-90">
          <mxGeometry width="50" height="50" relative="1" as="geometry">
            <mxPoint x="920" y="1250" as="sourcePoint" />
            <mxPoint x="1140" y="1310" as="targetPoint" />
          </mxGeometry>
        </mxCell>
        <mxCell id="KDOvX2IwmLNje3FLTkCe-90" value="cout &amp;lt;&amp;lt;&quot;Самое длинное слово: &quot; &amp;lt;&amp;lt; longestword;" style="shape=parallelogram;perimeter=parallelogramPerimeter;whiteSpace=wrap;html=1;fixedSize=1;" vertex="1" parent="1">
          <mxGeometry x="980" y="1310" width="300" height="30" as="geometry" />
        </mxCell>
        <mxCell id="KDOvX2IwmLNje3FLTkCe-91" value="" style="endArrow=classic;html=1;rounded=0;exitX=0.5;exitY=1;exitDx=0;exitDy=0;" edge="1" parent="1" source="KDOvX2IwmLNje3FLTkCe-90">
          <mxGeometry width="50" height="50" relative="1" as="geometry">
            <mxPoint x="920" y="1250" as="sourcePoint" />
            <mxPoint x="1130" y="1380" as="targetPoint" />
          </mxGeometry>
        </mxCell>
        <mxCell id="KDOvX2IwmLNje3FLTkCe-92" value="return 0;}" style="ellipse;whiteSpace=wrap;html=1;" vertex="1" parent="1">
          <mxGeometry x="1070" y="1380" width="120" height="40" as="geometry" />
        </mxCell>
        <mxCell id="KDOvX2IwmLNje3FLTkCe-94" value="1" style="text;html=1;align=center;verticalAlign=middle;resizable=0;points=[];autosize=1;strokeColor=none;fillColor=none;" vertex="1" parent="1">
          <mxGeometry x="565" y="608" width="30" height="30" as="geometry" />
        </mxCell>
        <mxCell id="KDOvX2IwmLNje3FLTkCe-95" value="0" style="text;html=1;align=center;verticalAlign=middle;resizable=0;points=[];autosize=1;strokeColor=none;fillColor=none;" vertex="1" parent="1">
          <mxGeometry x="825" y="608" width="30" height="30" as="geometry" />
        </mxCell>
        <mxCell id="KDOvX2IwmLNje3FLTkCe-96" value="}" style="text;html=1;align=center;verticalAlign=middle;resizable=0;points=[];autosize=1;strokeColor=none;fillColor=none;" vertex="1" parent="1">
          <mxGeometry x="795" y="908" width="30" height="30" as="geometry" />
        </mxCell>
        <mxCell id="KDOvX2IwmLNje3FLTkCe-97" value="{" style="text;html=1;align=center;verticalAlign=middle;resizable=0;points=[];autosize=1;strokeColor=none;fillColor=none;" vertex="1" parent="1">
          <mxGeometry x="535" y="758" width="30" height="30" as="geometry" />
        </mxCell>
        <mxCell id="KDOvX2IwmLNje3FLTkCe-98" value="}" style="text;html=1;align=center;verticalAlign=middle;resizable=0;points=[];autosize=1;strokeColor=none;fillColor=none;" vertex="1" parent="1">
          <mxGeometry x="558" y="830" width="30" height="30" as="geometry" />
        </mxCell>
        <mxCell id="KDOvX2IwmLNje3FLTkCe-99" value="{" style="text;html=1;align=center;verticalAlign=middle;resizable=0;points=[];autosize=1;strokeColor=none;fillColor=none;" vertex="1" parent="1">
          <mxGeometry x="755" y="1188" width="30" height="30" as="geometry" />
        </mxCell>
        <mxCell id="KDOvX2IwmLNje3FLTkCe-100" value="}}" style="text;html=1;align=center;verticalAlign=middle;resizable=0;points=[];autosize=1;strokeColor=none;fillColor=none;" vertex="1" parent="1">
          <mxGeometry x="795" y="1368" width="30" height="30" as="geometry" />
        </mxCell>
        <mxCell id="KDOvX2IwmLNje3FLTkCe-101" value="1 {" style="text;html=1;align=center;verticalAlign=middle;resizable=0;points=[];autosize=1;strokeColor=none;fillColor=none;" vertex="1" parent="1">
          <mxGeometry x="620" y="1218" width="40" height="30" as="geometry" />
        </mxCell>
        <mxCell id="KDOvX2IwmLNje3FLTkCe-102" value="0" style="text;html=1;align=center;verticalAlign=middle;resizable=0;points=[];autosize=1;strokeColor=none;fillColor=none;" vertex="1" parent="1">
          <mxGeometry x="905" y="1218" width="30" height="30" as="geometry" />
        </mxCell>
      </root>
    </mxGraphModel>
  </diagram>
</mxfile>
